<svg width="64.000000" height="64.000000" viewBox="0 0 64 64" fill="none" xmlns="http://www.w3.org/2000/svg" xmlns:xlink="http://www.w3.org/1999/xlink">
	<desc>
			Created with Pixso.
	</desc>
	<defs>
		<clipPath id="clip52_42">
			<rect rx="0.000000" width="63.000000" height="63.000000" transform="translate(0.500000 0.500000)" fill="white" fill-opacity="0"/>
		</clipPath>
	</defs>
	<rect rx="0.000000" width="63.000000" height="63.000000" transform="translate(0.500000 0.500000)" fill="#FFFFFF" fill-opacity="0"/>
	<g clip-path="url(#clip52_42)">
		<path d="M37.35 31.95C37.35 29.08 34.95 26.75 32 26.75C29.04 26.75 26.64 29.08 26.64 31.95C26.64 34.82 29.04 37.14 32 37.14C34.95 37.14 37.35 34.82 37.35 31.95Z" fill="#53C1DE" fill-opacity="1.000000" fill-rule="nonzero"/>
		<path d="M49.4 22.3C50.53 17.84 51.95 9.58 46.94 6.78C41.95 3.98 35.45 9.33 32.02 12.54C28.6 9.36 21.93 4.04 16.92 6.85C11.93 9.65 13.47 17.78 14.62 22.27C9.97 23.55 2 26.31 2 31.95C2 37.57 9.96 40.57 14.59 41.85C13.43 46.36 11.97 54.38 16.96 57.17C21.99 59.98 28.64 54.78 32.11 51.54C35.56 54.77 41.99 60 46.98 57.2C51.99 54.39 50.68 46.23 49.53 41.72C54.01 40.44 62 37.5 62 31.95C62 26.36 53.98 23.58 49.4 22.3ZM48.83 39.33C48.07 37 47.04 34.52 45.79 31.96C46.99 29.46 47.97 27.01 48.71 24.7C52.07 25.64 59.43 27.8 59.43 31.95C59.43 36.14 52.36 38.31 48.83 39.33ZM45.7 55.05C41.97 57.14 36.44 52.13 33.89 49.76C35.58 47.96 37.27 45.88 38.92 43.56C41.82 43.32 44.56 42.91 47.05 42.35C47.86 45.54 49.44 52.95 45.7 55.05ZM18.24 55.02C14.52 52.94 16.22 45.78 17.07 42.46C19.53 42.99 22.25 43.37 25.16 43.6C26.82 45.86 28.56 47.94 30.31 49.77C28.15 51.8 21.98 57.11 18.24 55.02ZM4.56 31.95C4.56 27.74 11.88 25.6 15.31 24.66C16.06 27.03 17.05 29.5 18.24 32.01C17.03 34.55 16.03 37.06 15.28 39.46C12 38.55 4.56 36.15 4.56 31.95ZM18.2 9C21.94 6.9 27.74 12.01 30.23 14.32C28.48 16.13 26.76 18.2 25.12 20.45C22.29 20.7 19.59 21.11 17.11 21.65C16.18 18.04 14.47 11.1 18.2 9ZM40.75 23.15C42.67 23.38 44.5 23.7 46.22 24.08C45.71 25.68 45.06 27.36 44.3 29.09C43.2 27.06 42.02 25.08 40.75 23.15ZM32.02 16.09C33.21 17.33 34.39 18.72 35.55 20.22C33.19 20.12 30.83 20.12 28.46 20.22C29.63 18.73 30.82 17.35 32.02 16.09ZM19.71 29.08C18.96 27.37 18.32 25.68 17.8 24.05C19.51 23.68 21.34 23.38 23.24 23.14C21.97 25.07 20.79 27.05 19.71 29.08ZM23.3 40.93C21.33 40.71 19.48 40.43 17.77 40.06C18.3 38.41 18.95 36.68 19.71 34.93C20.81 36.98 22 38.98 23.3 40.93ZM32.09 47.98C30.88 46.71 29.67 45.3 28.48 43.79C30.86 43.88 33.24 43.88 35.62 43.78C34.45 45.32 33.27 46.72 32.09 47.98ZM44.33 34.84C45.13 36.61 45.81 38.33 46.34 39.96C44.6 40.34 42.73 40.65 40.75 40.88C42.03 38.92 43.22 36.9 44.33 34.84ZM37.49 41.18C33.86 41.44 30.2 41.43 26.56 41.2C24.5 38.28 22.66 35.2 21.07 32.01C22.65 28.82 24.48 25.75 26.53 22.83C30.17 22.56 33.83 22.56 37.47 22.83C39.51 25.75 41.33 28.81 42.95 31.97C41.35 35.16 39.51 38.23 37.49 41.18ZM45.66 8.93C49.4 11.02 47.73 18.45 46.91 21.68C44.42 21.12 41.72 20.71 38.89 20.45C37.24 18.18 35.53 16.11 33.82 14.31C36.33 11.96 41.95 6.86 45.66 8.93Z" fill="#53C1DE" fill-opacity="1.000000" fill-rule="evenodd"/>
	</g>
</svg>
